<svg xmlns="http://www.w3.org/2000/svg" viewBox="0 0 800 400" width="800" height="400" role="img" aria-label="Snake — multi-run creature complexity dual-axis chart">
  <title>Snake — multi-run creature complexity</title>
  <rect width="800" height="400" fill="#fafafa"/>
  <text x="400" y="24" text-anchor="middle" font-family="sans-serif" font-size="16" font-weight="bold" fill="#222">Snake — multi-run creature complexity</text>
  <rect x="70" y="50" width="660" height="290" fill="#ffffff" stroke="#333333" stroke-width="1"/>
  <g class="x-axis" font-family="sans-serif" font-size="11" fill="#333333">
    <line x1="70" y1="340" x2="70" y2="344" stroke="#333333" stroke-width="1"/>
    <text x="70" y="358" text-anchor="middle">1</text>
    <line x1="284.19" y1="340" x2="284.19" y2="344" stroke="#333333" stroke-width="1"/>
    <text x="284.19" y="358" text-anchor="middle">10</text>
    <line x1="498.38" y1="340" x2="498.38" y2="344" stroke="#333333" stroke-width="1"/>
    <text x="498.38" y="358" text-anchor="middle">100</text>
    <line x1="712.58" y1="340" x2="712.58" y2="344" stroke="#333333" stroke-width="1"/>
    <text x="712.58" y="358" text-anchor="middle">1000</text>
    <line x1="730" y1="340" x2="730" y2="344" stroke="#333333" stroke-width="1"/>
    <text x="730" y="358" text-anchor="middle">1206</text>
    <text x="400" y="376" text-anchor="middle" font-weight="bold">cumulative generation (log scale)</text>
  </g>
  <g class="left-axis" font-family="sans-serif" font-size="11" fill="#333333">
    <line x1="66" y1="340" x2="70" y2="340" stroke="#333333" stroke-width="1"/>
    <text x="62" y="340" text-anchor="end" dominant-baseline="middle">0</text>
    <line x1="66" y1="278.48" x2="70" y2="278.48" stroke="#333333" stroke-width="1"/>
    <text x="62" y="278.48" text-anchor="end" dominant-baseline="middle">7</text>
    <line x1="66" y1="216.97" x2="70" y2="216.97" stroke="#333333" stroke-width="1"/>
    <text x="62" y="216.97" text-anchor="end" dominant-baseline="middle">14</text>
    <line x1="66" y1="155.45" x2="70" y2="155.45" stroke="#333333" stroke-width="1"/>
    <text x="62" y="155.45" text-anchor="end" dominant-baseline="middle">21</text>
    <line x1="66" y1="93.94" x2="70" y2="93.94" stroke="#333333" stroke-width="1"/>
    <text x="62" y="93.94" text-anchor="end" dominant-baseline="middle">28</text>
    <line x1="66" y1="50" x2="70" y2="50" stroke="#333333" stroke-width="1"/>
    <text x="62" y="50" text-anchor="end" dominant-baseline="middle">33</text>
    <text x="22" y="195" text-anchor="middle" dominant-baseline="middle" font-weight="bold" transform="rotate(-90 22 195)">neurons</text>
  </g>
  <g class="right-axis" font-family="sans-serif" font-size="11" fill="#333333">
    <line x1="730" y1="340" x2="734" y2="340" stroke="#333333" stroke-width="1"/>
    <text x="738" y="340" text-anchor="start" dominant-baseline="middle">0</text>
    <line x1="730" y1="282.95" x2="734" y2="282.95" stroke="#333333" stroke-width="1"/>
    <text x="738" y="282.95" text-anchor="start" dominant-baseline="middle">12</text>
    <line x1="730" y1="225.9" x2="734" y2="225.9" stroke="#333333" stroke-width="1"/>
    <text x="738" y="225.9" text-anchor="start" dominant-baseline="middle">24</text>
    <line x1="730" y1="168.85" x2="734" y2="168.85" stroke="#333333" stroke-width="1"/>
    <text x="738" y="168.85" text-anchor="start" dominant-baseline="middle">36</text>
    <line x1="730" y1="111.8" x2="734" y2="111.8" stroke="#333333" stroke-width="1"/>
    <text x="738" y="111.8" text-anchor="start" dominant-baseline="middle">48</text>
    <line x1="730" y1="54.75" x2="734" y2="54.75" stroke="#333333" stroke-width="1"/>
    <text x="738" y="54.75" text-anchor="start" dominant-baseline="middle">60</text>
    <line x1="730" y1="50" x2="734" y2="50" stroke="#333333" stroke-width="1"/>
    <text x="738" y="50" text-anchor="start" dominant-baseline="middle">61</text>
    <text x="778" y="195" text-anchor="middle" dominant-baseline="middle" font-weight="bold" transform="rotate(90 778 195)">synapses</text>
  </g>
  <g class="run-boundaries" font-family="sans-serif" font-size="10" fill="#666666">
    <line class="run-boundary" x1="712.67" y1="50" x2="712.67" y2="340" stroke="#cccccc" stroke-width="0.5"/>
    <text x="712.67" y="46" text-anchor="middle">run 2</text>
    <line class="run-boundary" x1="729.61" y1="50" x2="729.61" y2="340" stroke="#cccccc" stroke-width="0.5"/>
    <text x="729.61" y="46" text-anchor="middle">run 3</text>
  </g>
  <g class="neurons-line">
    <polyline fill="none" stroke="#2ca02c" stroke-width="1.5" points="70,234.55 134.48,234.55 219.71,234.55 284.19,234.55 348.67,234.55 433.91,225.76 498.38,225.76 562.86,225.76 648.1,190.61 712.58,146.67"/>
    <polyline fill="none" stroke="#2ca02c" stroke-width="1.5" points="712.67,67.58 712.76,67.58 713.04,67.58 713.5,67.58 714.42,67.58 717.11,67.58 721.44,67.58 729.54,67.58"/>
    <polyline fill="none" stroke="#2ca02c" stroke-width="1.5" points="729.61,50 729.69,50 729.92,50 730,111.52"/>
    <circle class="neurons-point" cx="70" cy="234.55" r="2.4" fill="#2ca02c"/>
    <circle class="neurons-point" cx="134.48" cy="234.55" r="2.4" fill="#2ca02c"/>
    <circle class="neurons-point" cx="219.71" cy="234.55" r="2.4" fill="#2ca02c"/>
    <circle class="neurons-point" cx="284.19" cy="234.55" r="2.4" fill="#2ca02c"/>
    <circle class="neurons-point" cx="348.67" cy="234.55" r="2.4" fill="#2ca02c"/>
    <circle class="neurons-point" cx="433.91" cy="225.76" r="2.4" fill="#2ca02c"/>
    <circle class="neurons-point" cx="498.38" cy="225.76" r="2.4" fill="#2ca02c"/>
    <circle class="neurons-point" cx="562.86" cy="225.76" r="2.4" fill="#2ca02c"/>
    <circle class="neurons-point" cx="648.1" cy="190.61" r="2.4" fill="#2ca02c"/>
    <circle class="neurons-point" cx="712.58" cy="146.67" r="2.4" fill="#2ca02c"/>
    <circle class="neurons-point" cx="712.67" cy="67.58" r="2.4" fill="#2ca02c"/>
    <circle class="neurons-point" cx="712.76" cy="67.58" r="2.4" fill="#2ca02c"/>
    <circle class="neurons-point" cx="713.04" cy="67.58" r="2.4" fill="#2ca02c"/>
    <circle class="neurons-point" cx="713.5" cy="67.58" r="2.4" fill="#2ca02c"/>
    <circle class="neurons-point" cx="714.42" cy="67.58" r="2.4" fill="#2ca02c"/>
    <circle class="neurons-point" cx="717.11" cy="67.58" r="2.4" fill="#2ca02c"/>
    <circle class="neurons-point" cx="721.44" cy="67.58" r="2.4" fill="#2ca02c"/>
    <circle class="neurons-point" cx="729.54" cy="67.58" r="2.4" fill="#2ca02c"/>
    <circle class="neurons-point" cx="729.61" cy="50" r="2.4" fill="#2ca02c"/>
    <circle class="neurons-point" cx="729.69" cy="50" r="2.4" fill="#2ca02c"/>
    <circle class="neurons-point" cx="729.92" cy="50" r="2.4" fill="#2ca02c"/>
    <circle class="neurons-point" cx="730" cy="111.52" r="2.4" fill="#2ca02c"/>
  </g>
  <g class="synapses-line">
    <polyline fill="none" stroke="#d62728" stroke-width="1.5" points="70,192.62 134.48,192.62 219.71,192.62 284.19,192.62 348.67,192.62 433.91,178.36 498.38,173.61 562.86,173.61 648.1,168.85 712.58,140.33"/>
    <polyline fill="none" stroke="#d62728" stroke-width="1.5" points="712.67,73.77 712.76,69.02 713.04,69.02 713.5,69.02 714.42,69.02 717.11,69.02 721.44,69.02 729.54,69.02"/>
    <polyline fill="none" stroke="#d62728" stroke-width="1.5" points="729.61,50 729.69,50 729.92,50 730,121.31"/>
    <circle class="synapses-point" cx="70" cy="192.62" r="2.4" fill="#d62728"/>
    <circle class="synapses-point" cx="134.48" cy="192.62" r="2.4" fill="#d62728"/>
    <circle class="synapses-point" cx="219.71" cy="192.62" r="2.4" fill="#d62728"/>
    <circle class="synapses-point" cx="284.19" cy="192.62" r="2.4" fill="#d62728"/>
    <circle class="synapses-point" cx="348.67" cy="192.62" r="2.4" fill="#d62728"/>
    <circle class="synapses-point" cx="433.91" cy="178.36" r="2.4" fill="#d62728"/>
    <circle class="synapses-point" cx="498.38" cy="173.61" r="2.4" fill="#d62728"/>
    <circle class="synapses-point" cx="562.86" cy="173.61" r="2.4" fill="#d62728"/>
    <circle class="synapses-point" cx="648.1" cy="168.85" r="2.4" fill="#d62728"/>
    <circle class="synapses-point" cx="712.58" cy="140.33" r="2.4" fill="#d62728"/>
    <circle class="synapses-point" cx="712.67" cy="73.77" r="2.4" fill="#d62728"/>
    <circle class="synapses-point" cx="712.76" cy="69.02" r="2.4" fill="#d62728"/>
    <circle class="synapses-point" cx="713.04" cy="69.02" r="2.4" fill="#d62728"/>
    <circle class="synapses-point" cx="713.5" cy="69.02" r="2.4" fill="#d62728"/>
    <circle class="synapses-point" cx="714.42" cy="69.02" r="2.4" fill="#d62728"/>
    <circle class="synapses-point" cx="717.11" cy="69.02" r="2.4" fill="#d62728"/>
    <circle class="synapses-point" cx="721.44" cy="69.02" r="2.4" fill="#d62728"/>
    <circle class="synapses-point" cx="729.54" cy="69.02" r="2.4" fill="#d62728"/>
    <circle class="synapses-point" cx="729.61" cy="50" r="2.4" fill="#d62728"/>
    <circle class="synapses-point" cx="729.69" cy="50" r="2.4" fill="#d62728"/>
    <circle class="synapses-point" cx="729.92" cy="50" r="2.4" fill="#d62728"/>
    <circle class="synapses-point" cx="730" cy="121.31" r="2.4" fill="#d62728"/>
  </g>
  <g class="legend" font-family="sans-serif" font-size="11" fill="#222222">
    <rect x="76" y="52" width="120" height="40" fill="#ffffff" fill-opacity="0.85" stroke="#cccccc" stroke-width="0.5"/>
    <line x1="82" y1="62" x2="100" y2="62" stroke="#2ca02c" stroke-width="2"/>
    <text x="106" y="66">neurons</text>
    <line x1="82" y1="78" x2="100" y2="78" stroke="#d62728" stroke-width="2"/>
    <text x="106" y="82">synapses</text>
  </g>
  <g class="caption" font-family="sans-serif" font-size="12" fill="#222222">
    <text x="400" y="394" text-anchor="middle">final 26 neurons · 46 synapses · 3 runs · 1206 cumulative generations</text>
  </g>
</svg>
