<svg
  xmlns="http://www.w3.org/2000/svg"
  viewBox="0 0 800 400"
  width="800"
  height="400"
  role="img"
  aria-label="Lunar lander champion descent trajectory (animated)"
>
  <title>Lunar Lander Champion Descent (animated)</title>
  <desc>SMIL-animated SVG: a lander icon descends along the recorded trajectory, tilting with its angle and flickering its main, left, and right thruster flames as the controller fires them. A HUD shows the remaining fuel budget. Loops every 6 seconds.</desc>
  <rect width="800" height="400" fill="#0b0b1a" />
  <circle cx="60" cy="40" r="1" fill="#ffffff" opacity="0.7" />
  <circle cx="140" cy="70" r="1" fill="#ffffff" opacity="0.7" />
  <circle cx="220" cy="30" r="1" fill="#ffffff" opacity="0.7" />
  <circle cx="310" cy="60" r="1" fill="#ffffff" opacity="0.7" />
  <circle cx="400" cy="25" r="1" fill="#ffffff" opacity="0.7" />
  <circle cx="490" cy="80" r="1" fill="#ffffff" opacity="0.7" />
  <circle cx="580" cy="35" r="1" fill="#ffffff" opacity="0.7" />
  <circle cx="660" cy="75" r="1" fill="#ffffff" opacity="0.7" />
  <circle cx="740" cy="50" r="1" fill="#ffffff" opacity="0.7" />
  <circle cx="180" cy="120" r="1" fill="#ffffff" opacity="0.7" />
  <circle cx="350" cy="110" r="1" fill="#ffffff" opacity="0.7" />
  <circle cx="520" cy="130" r="1" fill="#ffffff" opacity="0.7" />
  <circle cx="700" cy="100" r="1" fill="#ffffff" opacity="0.7" />
  <circle cx="80" cy="200" r="1" fill="#ffffff" opacity="0.7" />
  <circle cx="260" cy="180" r="1" fill="#ffffff" opacity="0.7" />
  <circle cx="430" cy="170" r="1" fill="#ffffff" opacity="0.7" />
  <circle cx="620" cy="190" r="1" fill="#ffffff" opacity="0.7" />
  <rect x="0" y="370.00" width="800" height="30.00" fill="#3a2a1a" />
  <rect
    class="pad"
    x="340.80"
    y="366.00"
    width="118.40"
    height="6"
    fill="#f5d76e"
    stroke="#b8860b"
  />
  <g class="target-marker">
    <line
      x1="400.00"
      y1="336.00"
      x2="400.00"
      y2="362.00"
      stroke="#f5d76e"
      stroke-width="2"
      stroke-dasharray="3 2"
    />
    <polygon points="395.00,356.00 405.00,356.00 400.00,362.00" fill="#f5d76e" />
    <text
      x="400.00"
      y="332.00"
      text-anchor="middle"
      font-family="monospace"
      font-size="11"
      fill="#f5d76e"
    >TARGET</text>
  </g>
  <polyline
    class="trajectory"
    points="252.00,60.91 253.48,60.97 254.96,61.10 256.44,61.28 257.92,61.53 259.40,61.85 260.88,62.22 262.36,62.66 263.84,63.16 265.32,63.73 266.80,64.35 268.28,65.04 269.76,65.79 271.24,66.60 272.72,67.48 274.20,68.42 275.68,69.42 277.16,70.49 278.64,71.61 280.12,72.80 281.60,74.05 283.08,75.37 284.56,76.74 286.04,78.18 287.52,79.69 289.00,81.25 290.48,82.88 291.96,84.57 293.44,86.32 294.92,88.14 296.40,90.01 297.88,91.95 299.36,93.96 300.84,96.02 302.32,98.15 303.80,100.34 305.28,102.59 306.76,104.91 308.24,107.29 309.72,109.73 311.20,112.23 312.68,114.80 314.16,117.43 315.64,120.12 317.12,122.87 318.60,125.69 320.08,128.57 321.56,131.51 323.04,134.52 324.52,137.58 326.00,140.71 327.48,143.90 328.96,147.16 330.44,150.48 331.92,153.86 333.40,157.30 334.88,160.80 336.36,164.37 337.84,168.00 339.32,171.69 340.80,175.45 342.28,179.27 343.76,183.15 345.24,187.09 346.72,191.10 348.20,195.17 349.68,199.30 351.16,203.49 352.64,207.75 354.12,212.07 355.60,216.45 357.08,220.89 358.56,225.40 360.04,229.97 361.52,234.60 363.00,239.29 364.48,244.05 365.96,248.87 367.44,253.75 368.92,258.70 370.40,263.51 371.88,268.19 373.36,272.75 374.84,277.17 376.32,281.46 377.80,285.62 379.28,289.65 380.76,293.55 382.24,297.32 383.72,300.96 385.20,304.47 386.68,307.85 388.16,311.09 389.64,314.21 391.12,317.20 392.60,320.05 394.08,322.78 395.56,325.37 397.04,327.83 398.52,330.17 400.00,332.37 401.48,334.44 402.96,336.38 404.44,338.38 405.92,340.26 407.40,342.00 408.88,343.81 410.36,345.48 411.84,347.02 413.32,348.63 414.80,350.11 416.28,351.64 417.76,353.05 419.24,354.33 420.72,355.67 422.20,356.88 423.68,358.15 425.16,359.29 426.64,360.50 428.12,361.57 429.60,362.71 431.08,363.71 432.56,364.59 434.04,365.52 435.52,366.33 437.00,367.20 438.48,367.94 439.96,368.74 441.44,369.41 442.92,370.14"
    fill="none"
    stroke="#9ad9ff"
    stroke-width="2"
    stroke-dasharray="4 3"
  />
  <g class="pose" data-step="0">
    <line
      class="body"
      x1="252.00"
      y1="60.91"
      x2="252.00"
      y2="36.91"
      stroke="#dddddd"
      stroke-width="6"
      stroke-linecap="round"
    />
    <line
      class="leg"
      x1="252.00"
      y1="60.91"
      x2="243.60"
      y2="60.91"
      stroke="#aaaaaa"
      stroke-width="2"
    />
    <line
      class="leg"
      x1="252.00"
      y1="60.91"
      x2="260.40"
      y2="60.91"
      stroke="#aaaaaa"
      stroke-width="2"
    />
    <circle class="hull" cx="252.00" cy="48.91" r="3" fill="#4a90d9" />
    <line
      class="flame left"
      x1="243.60"
      y1="60.91"
      x2="235.20"
      y2="60.91"
      stroke="#ffd166"
      stroke-width="2"
      stroke-linecap="round"
    />
    <line
      class="flame right"
      x1="260.40"
      y1="60.91"
      x2="268.80"
      y2="60.91"
      stroke="#ffd166"
      stroke-width="2"
      stroke-linecap="round"
    />
    <text x="260.00" y="52.91" font-family="monospace" font-size="10" fill="#cccccc">step 0</text>
  </g>
  <g class="pose" data-step="64">
    <line
      class="body"
      x1="346.72"
      y1="191.10"
      x2="346.72"
      y2="167.10"
      stroke="#dddddd"
      stroke-width="6"
      stroke-linecap="round"
    />
    <line
      class="leg"
      x1="346.72"
      y1="191.10"
      x2="338.32"
      y2="191.10"
      stroke="#aaaaaa"
      stroke-width="2"
    />
    <line
      class="leg"
      x1="346.72"
      y1="191.10"
      x2="355.12"
      y2="191.10"
      stroke="#aaaaaa"
      stroke-width="2"
    />
    <circle class="hull" cx="346.72" cy="179.10" r="3" fill="#4a90d9" />
    <line
      class="flame left"
      x1="338.32"
      y1="191.10"
      x2="329.92"
      y2="191.10"
      stroke="#ffd166"
      stroke-width="2"
      stroke-linecap="round"
    />
    <line
      class="flame right"
      x1="355.12"
      y1="191.10"
      x2="363.52"
      y2="191.10"
      stroke="#ffd166"
      stroke-width="2"
      stroke-linecap="round"
    />
    <text x="354.72" y="183.10" font-family="monospace" font-size="10" fill="#cccccc">step 64</text>
  </g>
  <g class="pose" data-step="129">
    <line
      class="body"
      x1="442.92"
      y1="370.14"
      x2="442.92"
      y2="346.14"
      stroke="#dddddd"
      stroke-width="6"
      stroke-linecap="round"
    />
    <line
      class="leg"
      x1="442.92"
      y1="370.14"
      x2="434.52"
      y2="370.14"
      stroke="#aaaaaa"
      stroke-width="2"
    />
    <line
      class="leg"
      x1="442.92"
      y1="370.14"
      x2="451.32"
      y2="370.14"
      stroke="#aaaaaa"
      stroke-width="2"
    />
    <circle class="hull" cx="442.92" cy="358.14" r="3" fill="#4a90d9" />
    <text
      x="450.92"
      y="362.14"
      font-family="monospace"
      font-size="10"
      fill="#cccccc"
    >step 129</text>
  </g>

  <g class="animated-lander" transform="translate(252.00 48.91)">
    <animateTransform
      attributeName="transform"
      type="translate"
      values="252.00,48.91;253.48,48.97;254.96,49.10;256.44,49.28;257.92,49.53;259.40,49.85;260.88,50.22;262.36,50.66;263.84,51.16;265.32,51.73;266.80,52.35;268.28,53.04;269.76,53.79;271.24,54.60;272.72,55.48;274.20,56.42;275.68,57.42;277.16,58.49;278.64,59.61;280.12,60.80;281.60,62.05;283.08,63.37;284.56,64.74;286.04,66.18;287.52,67.69;289.00,69.25;290.48,70.88;291.96,72.57;293.44,74.32;294.92,76.14;296.40,78.01;297.88,79.95;299.36,81.96;300.84,84.02;302.32,86.15;303.80,88.34;305.28,90.59;306.76,92.91;308.24,95.29;309.72,97.73;311.20,100.23;312.68,102.80;314.16,105.43;315.64,108.12;317.12,110.87;318.60,113.69;320.08,116.57;321.56,119.51;323.04,122.52;324.52,125.58;326.00,128.71;327.48,131.90;328.96,135.16;330.44,138.48;331.92,141.86;333.40,145.30;334.88,148.80;336.36,152.37;337.84,156.00;339.32,159.69;340.80,163.45;342.28,167.27;343.76,171.15;345.24,175.09;346.72,179.10;348.20,183.17;349.68,187.30;351.16,191.49;352.64,195.75;354.12,200.07;355.60,204.45;357.08,208.89;358.56,213.40;360.04,217.97;361.52,222.60;363.00,227.29;364.48,232.05;365.96,236.87;367.44,241.75;368.92,246.70;370.40,251.51;371.88,256.19;373.36,260.75;374.84,265.17;376.32,269.46;377.80,273.62;379.28,277.65;380.76,281.55;382.24,285.32;383.72,288.96;385.20,292.47;386.68,295.85;388.16,299.09;389.64,302.21;391.12,305.20;392.60,308.05;394.08,310.78;395.56,313.37;397.04,315.83;398.52,318.17;400.00,320.37;401.48,322.44;402.96,324.38;404.44,326.38;405.92,328.26;407.40,330.00;408.88,331.81;410.36,333.48;411.84,335.02;413.32,336.63;414.80,338.11;416.28,339.64;417.76,341.05;419.24,342.33;420.72,343.67;422.20,344.88;423.68,346.15;425.16,347.29;426.64,348.50;428.12,349.57;429.60,350.71;431.08,351.71;432.56,352.59;434.04,353.52;435.52,354.33;437.00,355.20;438.48,355.94;439.96,356.74;441.44,357.41;442.92,358.14"
      dur="6s"
      repeatCount="indefinite"
      calcMode="linear"
    />
    <g class="lander-rotor" transform="rotate(0.00)">
      <animateTransform
        attributeName="transform"
        type="rotate"
        values="0.00;0.00;0.00;0.00;0.00;0.00;0.00;0.00;0.00;0.00;0.00;0.00;0.00;0.00;0.00;0.00;0.00;0.00;0.00;0.00;0.00;0.00;0.00;0.00;0.00;0.00;0.00;0.00;0.00;0.00;0.00;0.00;0.00;0.00;0.00;0.00;0.00;0.00;0.00;0.00;0.00;0.00;0.00;0.00;0.00;0.00;0.00;0.00;0.00;0.00;0.00;0.00;0.00;0.00;0.00;0.00;0.00;0.00;0.00;0.00;0.00;0.00;0.00;0.00;0.00;0.00;0.00;0.00;0.00;0.00;0.00;0.00;0.00;0.00;0.00;0.00;0.00;0.00;0.00;0.00;0.00;0.00;0.00;0.00;0.00;0.00;0.00;0.00;0.00;0.00;0.00;0.00;0.00;0.00;0.00;0.00;0.00;0.00;0.00;0.00;0.00;0.00;0.00;0.00;0.00;0.00;0.00;0.00;0.00;0.00;0.00;0.00;0.00;0.00;0.00;0.00;0.00;0.00;0.00;0.00;0.00;0.00;0.00;0.00;0.00;0.00;0.00;0.00;0.00;0.00"
        dur="6s"
        repeatCount="indefinite"
        calcMode="linear"
      />
      <line
        class="anim-body"
        x1="0"
        y1="-12.00"
        x2="0"
        y2="12.00"
        stroke="#dddddd"
        stroke-width="6"
        stroke-linecap="round"
      />
      <circle
        class="anim-hull"
        cx="0"
        cy="0"
        r="6"
        fill="#4a90d9"
        stroke="#dddddd"
        stroke-width="2"
      />
      <line
        class="anim-flame main"
        x1="0"
        y1="12.00"
        x2="0"
        y2="26.00"
        stroke="#ff8c1a"
        stroke-width="3"
        stroke-linecap="round"
        opacity="0"
      >
        <animate
          attributeName="opacity"
          values="0;0;0;0;0;0;0;0;0;0;0;0;0;0;0;0;0;0;0;0;0;0;0;0;0;0;0;0;0;0;0;0;0;0;0;0;0;0;0;0;0;0;0;0;0;0;0;0;0;0;0;0;0;0;0;0;0;0;0;0;0;0;0;0;0;0;0;0;0;0;0;0;0;0;0;0;0;0;0;1;1;1;1;1;1;1;1;1;1;1;1;1;1;1;1;1;1;1;1;1;1;1;0;1;1;0;1;1;0;1;0;1;1;0;1;0;1;0;1;0;1;1;0;1;0;1;0;1;0;0"
          dur="6s"
          repeatCount="indefinite"
          calcMode="discrete"
        />
      </line>
      <line
        class="anim-flame left"
        x1="-8.40"
        y1="12.00"
        x2="-16.80"
        y2="12.00"
        stroke="#ffd166"
        stroke-width="2"
        stroke-linecap="round"
        opacity="1"
      >
        <animate
          attributeName="opacity"
          values="1;1;1;1;1;1;1;1;1;1;1;1;1;1;1;1;1;1;1;1;1;1;1;1;1;1;1;1;1;1;1;1;1;1;1;1;1;1;1;1;1;1;1;1;1;1;1;1;1;1;1;1;1;1;1;1;1;1;1;1;1;1;1;1;1;1;1;1;1;1;1;1;1;1;1;1;1;1;1;1;1;1;1;1;1;1;1;1;1;1;1;1;1;1;1;1;1;1;1;1;1;1;1;1;1;1;1;1;1;1;1;1;1;1;1;1;1;1;1;1;1;1;1;1;1;1;1;1;1;0"
          dur="6s"
          repeatCount="indefinite"
          calcMode="discrete"
        />
      </line>
      <line
        class="anim-flame right"
        x1="8.40"
        y1="12.00"
        x2="16.80"
        y2="12.00"
        stroke="#ffd166"
        stroke-width="2"
        stroke-linecap="round"
        opacity="1"
      >
        <animate
          attributeName="opacity"
          values="1;1;1;1;1;1;1;1;1;1;1;1;1;1;1;1;1;1;1;1;1;1;1;1;1;1;1;1;1;1;1;1;1;1;1;1;1;1;1;1;1;1;1;1;1;1;1;1;1;1;1;1;1;1;1;1;1;1;1;1;1;1;1;1;1;1;1;1;1;1;1;1;1;1;1;1;1;1;1;1;1;1;1;1;1;1;1;1;1;1;1;1;1;1;1;1;1;1;1;1;1;1;1;1;1;1;1;1;1;1;1;1;1;1;1;1;1;1;1;1;1;1;1;1;1;1;1;1;1;0"
          dur="6s"
          repeatCount="indefinite"
          calcMode="discrete"
        />
      </line>
    </g>
  </g>
  <g class="hud">
    <text x="16" y="20.00" font-family="monospace" font-size="10" fill="#cccccc">FUEL</text>
    <rect
      class="hud-fuel-track"
      x="16"
      y="24"
      width="100"
      height="8"
      fill="#222"
      stroke="#666"
      stroke-width="1"
    />
    <rect class="hud-fuel-bar" x="16" y="24" width="100" height="8" fill="#7ed321">
      <animate
        attributeName="width"
        values="100.00;99.98;99.96;99.94;99.92;99.90;99.88;99.86;99.84;99.82;99.80;99.78;99.76;99.74;99.72;99.70;99.68;99.66;99.64;99.62;99.60;99.58;99.56;99.54;99.52;99.50;99.48;99.46;99.44;99.42;99.40;99.38;99.36;99.34;99.32;99.30;99.28;99.26;99.24;99.22;99.20;99.18;99.16;99.14;99.12;99.10;99.08;99.06;99.04;99.02;99.00;98.98;98.96;98.94;98.92;98.90;98.88;98.86;98.84;98.82;98.80;98.78;98.76;98.74;98.72;98.70;98.68;98.66;98.64;98.62;98.60;98.58;98.56;98.54;98.52;98.50;98.48;98.46;98.44;98.42;98.35;98.28;98.21;98.14;98.07;98.00;97.93;97.86;97.79;97.72;97.65;97.58;97.51;97.44;97.37;97.30;97.23;97.16;97.09;97.02;96.95;96.88;96.81;96.79;96.72;96.65;96.63;96.56;96.49;96.47;96.40;96.38;96.31;96.24;96.22;96.15;96.13;96.06;96.04;95.97;95.95;95.88;95.81;95.79;95.72;95.70;95.63;95.61;95.54;95.52"
        dur="6s"
        repeatCount="indefinite"
        calcMode="linear"
      />
    </rect>
  </g>
  <text
    x="788"
    y="388"
    text-anchor="end"
    font-family="sans-serif"
    font-size="11"
    fill="#9ad9ff"
  >animated · loops every 6s</text>
  <g class="outcome-badge" data-outcome="landed">
    <rect x="710.40" y="12" width="77.60" height="22" rx="4" fill="#7ed321" opacity="0.92" />
    <text
      x="749.20"
      y="28.00"
      text-anchor="middle"
      font-family="monospace"
      font-size="12"
      font-weight="bold"
      fill="#0b0b1a"
    >✓ LANDED</text>
  </g>
</svg>
