<svg
  xmlns="http://www.w3.org/2000/svg"
  viewBox="0 0 800 400"
  width="800"
  height="400"
  role="img"
  aria-label="Maze Navigation — evolveRL Milestones dual-axis chart"
>
  <title>Maze Navigation — evolveRL Milestones</title>
  <rect width="800" height="400" fill="#fafafa" />
  <text
    x="400"
    y="24"
    text-anchor="middle"
    font-family="sans-serif"
    font-size="16"
    font-weight="bold"
    fill="#222"
  >Maze Navigation — evolveRL Milestones</text>
  <rect x="70" y="40" width="660" height="300" fill="#ffffff" stroke="#333333" stroke-width="1" />
  <g class="x-axis" font-family="sans-serif" font-size="11" fill="#333333">
    <line x1="70" y1="340" x2="70" y2="344" stroke="#333333" stroke-width="1" />
    <text x="70" y="358" text-anchor="middle">1</text>
    <line x1="400" y1="340" x2="400" y2="344" stroke="#333333" stroke-width="1" />
    <text x="400" y="358" text-anchor="middle">10</text>
    <line x1="730" y1="340" x2="730" y2="344" stroke="#333333" stroke-width="1" />
    <text x="730" y="358" text-anchor="middle">100</text>
    <text x="400" y="376" text-anchor="middle" font-weight="bold">generation (log scale)</text>
  </g>
  <g class="left-axis" font-family="sans-serif" font-size="11" fill="#333333">
    <line x1="66" y1="340" x2="70" y2="340" stroke="#333333" stroke-width="1" />
    <text x="62" y="340" text-anchor="end" dominant-baseline="middle">-1</text>
    <line x1="66" y1="265.37" x2="70" y2="265.37" stroke="#333333" stroke-width="1" />
    <text x="62" y="265.37" text-anchor="end" dominant-baseline="middle">49</text>
    <line x1="66" y1="190.75" x2="70" y2="190.75" stroke="#333333" stroke-width="1" />
    <text x="62" y="190.75" text-anchor="end" dominant-baseline="middle">99</text>
    <line x1="66" y1="116.12" x2="70" y2="116.12" stroke="#333333" stroke-width="1" />
    <text x="62" y="116.12" text-anchor="end" dominant-baseline="middle">149</text>
    <line x1="66" y1="41.49" x2="70" y2="41.49" stroke="#333333" stroke-width="1" />
    <text x="62" y="41.49" text-anchor="end" dominant-baseline="middle">199</text>
    <line x1="66" y1="40" x2="70" y2="40" stroke="#333333" stroke-width="1" />
    <text x="62" y="40" text-anchor="end" dominant-baseline="middle">200</text>
    <text
      x="22"
      y="190"
      text-anchor="middle"
      dominant-baseline="middle"
      font-weight="bold"
      transform="rotate(-90 22 190)"
    >score / mean steps</text>
  </g>
  <g class="right-axis" font-family="sans-serif" font-size="11" fill="#333333">
    <line x1="730" y1="340" x2="734" y2="340" stroke="#333333" stroke-width="1" />
    <text x="738" y="340" text-anchor="start" dominant-baseline="middle">0</text>
    <line x1="730" y1="276.84" x2="734" y2="276.84" stroke="#333333" stroke-width="1" />
    <text x="738" y="276.84" text-anchor="start" dominant-baseline="middle">4</text>
    <line x1="730" y1="213.68" x2="734" y2="213.68" stroke="#333333" stroke-width="1" />
    <text x="738" y="213.68" text-anchor="start" dominant-baseline="middle">8</text>
    <line x1="730" y1="150.53" x2="734" y2="150.53" stroke="#333333" stroke-width="1" />
    <text x="738" y="150.53" text-anchor="start" dominant-baseline="middle">12</text>
    <line x1="730" y1="87.37" x2="734" y2="87.37" stroke="#333333" stroke-width="1" />
    <text x="738" y="87.37" text-anchor="start" dominant-baseline="middle">16</text>
    <line x1="730" y1="40" x2="734" y2="40" stroke="#333333" stroke-width="1" />
    <text x="738" y="40" text-anchor="start" dominant-baseline="middle">19</text>
    <text
      x="778"
      y="190"
      text-anchor="middle"
      dominant-baseline="middle"
      font-weight="bold"
      transform="rotate(90 778 190)"
    >neurons / synapses</text>
  </g>
  <g class="best-score-line">
    <polyline
      fill="none"
      stroke="#1f77b4"
      stroke-width="1.5"
      points="70,340 169.34,340 300.66,340 400,340 499.34,340 630.66,340 730,340"
    />
    <circle class="best-score-point" cx="70" cy="340" r="2.4" fill="#1f77b4" />
    <circle class="best-score-point" cx="169.34" cy="340" r="2.4" fill="#1f77b4" />
    <circle class="best-score-point" cx="300.66" cy="340" r="2.4" fill="#1f77b4" />
    <circle class="best-score-point" cx="400" cy="340" r="2.4" fill="#1f77b4" />
    <circle class="best-score-point" cx="499.34" cy="340" r="2.4" fill="#1f77b4" />
    <circle class="best-score-point" cx="630.66" cy="340" r="2.4" fill="#1f77b4" />
    <circle class="best-score-point" cx="730" cy="340" r="2.4" fill="#1f77b4" />
  </g>
  <g class="mean-steps-line">
    <polyline
      fill="none"
      stroke="#ff7f0e"
      stroke-width="1.5"
      points="70,40 169.34,40 300.66,40 400,40 499.34,40 630.66,40 730,40"
    />
    <circle class="mean-steps-point" cx="70" cy="40" r="2.4" fill="#ff7f0e" />
    <circle class="mean-steps-point" cx="169.34" cy="40" r="2.4" fill="#ff7f0e" />
    <circle class="mean-steps-point" cx="300.66" cy="40" r="2.4" fill="#ff7f0e" />
    <circle class="mean-steps-point" cx="400" cy="40" r="2.4" fill="#ff7f0e" />
    <circle class="mean-steps-point" cx="499.34" cy="40" r="2.4" fill="#ff7f0e" />
    <circle class="mean-steps-point" cx="630.66" cy="40" r="2.4" fill="#ff7f0e" />
    <circle class="mean-steps-point" cx="730" cy="40" r="2.4" fill="#ff7f0e" />
  </g>
  <g class="neurons-line">
    <polyline
      fill="none"
      stroke="#2ca02c"
      stroke-width="1.5"
      points="70,197.89 169.34,197.89 300.66,197.89 400,197.89 499.34,197.89 630.66,197.89 730,197.89"
    />
    <circle class="neurons-point" cx="70" cy="197.89" r="2.4" fill="#2ca02c" />
    <circle class="neurons-point" cx="169.34" cy="197.89" r="2.4" fill="#2ca02c" />
    <circle class="neurons-point" cx="300.66" cy="197.89" r="2.4" fill="#2ca02c" />
    <circle class="neurons-point" cx="400" cy="197.89" r="2.4" fill="#2ca02c" />
    <circle class="neurons-point" cx="499.34" cy="197.89" r="2.4" fill="#2ca02c" />
    <circle class="neurons-point" cx="630.66" cy="197.89" r="2.4" fill="#2ca02c" />
    <circle class="neurons-point" cx="730" cy="197.89" r="2.4" fill="#2ca02c" />
  </g>
  <g class="synapses-line">
    <polyline
      fill="none"
      stroke="#d62728"
      stroke-width="1.5"
      points="70,40 169.34,40 300.66,40 400,40 499.34,71.58 630.66,150.53 730,213.68"
    />
    <circle class="synapses-point" cx="70" cy="40" r="2.4" fill="#d62728" />
    <circle class="synapses-point" cx="169.34" cy="40" r="2.4" fill="#d62728" />
    <circle class="synapses-point" cx="300.66" cy="40" r="2.4" fill="#d62728" />
    <circle class="synapses-point" cx="400" cy="40" r="2.4" fill="#d62728" />
    <circle class="synapses-point" cx="499.34" cy="71.58" r="2.4" fill="#d62728" />
    <circle class="synapses-point" cx="630.66" cy="150.53" r="2.4" fill="#d62728" />
    <circle class="synapses-point" cx="730" cy="213.68" r="2.4" fill="#d62728" />
  </g>
  <g class="legend" font-family="sans-serif" font-size="11" fill="#222222">
    <rect
      x="76"
      y="42"
      width="160"
      height="72"
      fill="#ffffff"
      fill-opacity="0.85"
      stroke="#cccccc"
      stroke-width="0.5"
    />
    <line x1="82" y1="52" x2="100" y2="52" stroke="#1f77b4" stroke-width="2" />
    <text x="106" y="56">best score</text>
    <line x1="82" y1="68" x2="100" y2="68" stroke="#ff7f0e" stroke-width="2" />
    <text x="106" y="72">mean episode steps</text>
    <line x1="82" y1="84" x2="100" y2="84" stroke="#2ca02c" stroke-width="2" />
    <text x="106" y="88">neurons</text>
    <line x1="82" y1="100" x2="100" y2="100" stroke="#d62728" stroke-width="2" />
    <text x="106" y="104">synapses</text>
  </g>
  <g class="caption" font-family="sans-serif" font-size="12" fill="#222222">
    <text
      x="400"
      y="394"
      text-anchor="middle"
    >final score -1 · 9 neurons · 8 synapses · 146 ms total</text>
  </g>
</svg>
