<svg xmlns="http://www.w3.org/2000/svg" viewBox="0 0 800 400" width="800" height="400" role="img" aria-label="MNIST — test accuracy vs wall-clock time chart">
  <title>MNIST — test accuracy vs wall-clock time</title>
  <rect width="800" height="400" fill="#fafafa"/>
  <text x="400" y="24" text-anchor="middle" font-family="sans-serif" font-size="16" font-weight="bold" fill="#222">MNIST — test accuracy vs wall-clock time</text>
  <rect x="70" y="50" width="690" height="290" fill="#ffffff" stroke="#333333" stroke-width="1"/>
  <text x="415" y="376" text-anchor="middle" font-family="sans-serif" font-size="12" fill="#333">Wall-clock time (hours)</text>
  <line x1="70.00" y1="340" x2="70.00" y2="344" stroke="#333"/>
  <text x="70.00" y="356" text-anchor="middle" font-family="sans-serif" font-size="10" fill="#333">0.3</text>
  <line x1="208.00" y1="340" x2="208.00" y2="344" stroke="#333"/>
  <text x="208.00" y="356" text-anchor="middle" font-family="sans-serif" font-size="10" fill="#333">3.1</text>
  <line x1="346.00" y1="340" x2="346.00" y2="344" stroke="#333"/>
  <text x="346.00" y="356" text-anchor="middle" font-family="sans-serif" font-size="10" fill="#333">6.0</text>
  <line x1="484.00" y1="340" x2="484.00" y2="344" stroke="#333"/>
  <text x="484.00" y="356" text-anchor="middle" font-family="sans-serif" font-size="10" fill="#333">8.8</text>
  <line x1="622.00" y1="340" x2="622.00" y2="344" stroke="#333"/>
  <text x="622.00" y="356" text-anchor="middle" font-family="sans-serif" font-size="10" fill="#333">11.7</text>
  <line x1="760.00" y1="340" x2="760.00" y2="344" stroke="#333"/>
  <text x="760.00" y="356" text-anchor="middle" font-family="sans-serif" font-size="10" fill="#333">14.5</text>
  <text x="16" y="195" text-anchor="middle" font-family="sans-serif" font-size="12" fill="#333" transform="rotate(-90 16 195)">Hold-out score</text>
  <line x1="66" y1="340.00" x2="70" y2="340.00" stroke="#333"/>
  <text x="62" y="344.00" text-anchor="end" font-family="sans-serif" font-size="10" fill="#333">0%</text>
  <line x1="66" y1="282.00" x2="70" y2="282.00" stroke="#333"/>
  <text x="62" y="286.00" text-anchor="end" font-family="sans-serif" font-size="10" fill="#333">8%</text>
  <line x1="66" y1="224.00" x2="70" y2="224.00" stroke="#333"/>
  <text x="62" y="228.00" text-anchor="end" font-family="sans-serif" font-size="10" fill="#333">16%</text>
  <line x1="66" y1="166.00" x2="70" y2="166.00" stroke="#333"/>
  <text x="62" y="170.00" text-anchor="end" font-family="sans-serif" font-size="10" fill="#333">24%</text>
  <line x1="66" y1="108.00" x2="70" y2="108.00" stroke="#333"/>
  <text x="62" y="112.00" text-anchor="end" font-family="sans-serif" font-size="10" fill="#333">32%</text>
  <line x1="66" y1="50.00" x2="70" y2="50.00" stroke="#333"/>
  <text x="62" y="54.00" text-anchor="end" font-family="sans-serif" font-size="10" fill="#333">40%</text>
  <path d="M70.00,226.74 L83.88,186.79 L98.12,185.57 L112.24,176.96 L116.54,175.31 L127.13,151.78 L137.75,126.53 L148.71,126.53 L159.26,115.42 L163.33,115.20 L173.97,114.99 L184.56,113.12 L195.16,113.12 L205.81,112.83 L210.21,112.33 L220.85,109.68 L231.42,96.62 L241.96,96.34 L252.66,96.34 L256.87,96.34 L267.42,94.97 L277.99,92.61 L288.87,92.61 L299.45,80.99 L301.87,80.99 L312.54,80.84 L323.20,78.69 L334.08,78.69 L344.63,77.33 L347.45,77.33 L358.05,76.83 L368.66,76.04 L379.26,76.04 L390.26,76.04 L394.59,76.04 L405.14,76.04 L415.68,76.04 L426.25,76.04 L436.79,74.96 L438.77,74.96 L449.31,74.96 L459.88,73.96 L470.44,73.89 L481.33,73.89 L485.23,73.89 L495.77,73.81 L506.29,73.81 L516.87,73.81 L527.50,73.81 L531.69,73.81 L542.22,73.81 L552.76,73.81 L563.34,73.81 L573.98,73.81 L577.68,73.81 L588.29,73.74 L598.86,73.74 L609.44,66.21 L620.01,63.20 L622.83,63.20 L633.46,56.03 L644.01,52.30 L654.76,52.01 L665.32,52.01 L668.02,52.01 L678.58,52.01 L689.14,51.29 L699.74,51.29 L710.33,51.29 L714.11,51.29 L724.71,50.14 L735.26,50.00 L745.84,50.00 L756.36,50.00 L760.00,50.00" fill="none" stroke="#1f77b4" stroke-width="2"/>
  <circle cx="70.00" cy="226.74" r="3" fill="#ffffff" stroke="#1f77b4" stroke-width="1.5"/>
  <circle cx="83.88" cy="186.79" r="3" fill="#ffffff" stroke="#1f77b4" stroke-width="1.5"/>
  <circle cx="98.12" cy="185.57" r="3" fill="#ffffff" stroke="#1f77b4" stroke-width="1.5"/>
  <circle cx="112.24" cy="176.96" r="3" fill="#ffffff" stroke="#1f77b4" stroke-width="1.5"/>
  <circle cx="116.54" cy="175.31" r="3" fill="#ffffff" stroke="#1f77b4" stroke-width="1.5"/>
  <circle cx="127.13" cy="151.78" r="3" fill="#ffffff" stroke="#1f77b4" stroke-width="1.5"/>
  <circle cx="137.75" cy="126.53" r="3" fill="#ffffff" stroke="#1f77b4" stroke-width="1.5"/>
  <circle cx="148.71" cy="126.53" r="3" fill="#ffffff" stroke="#1f77b4" stroke-width="1.5"/>
  <circle cx="159.26" cy="115.42" r="3" fill="#ffffff" stroke="#1f77b4" stroke-width="1.5"/>
  <circle cx="163.33" cy="115.20" r="3" fill="#ffffff" stroke="#1f77b4" stroke-width="1.5"/>
  <circle cx="173.97" cy="114.99" r="3" fill="#ffffff" stroke="#1f77b4" stroke-width="1.5"/>
  <circle cx="184.56" cy="113.12" r="3" fill="#ffffff" stroke="#1f77b4" stroke-width="1.5"/>
  <circle cx="195.16" cy="113.12" r="3" fill="#ffffff" stroke="#1f77b4" stroke-width="1.5"/>
  <circle cx="205.81" cy="112.83" r="3" fill="#ffffff" stroke="#1f77b4" stroke-width="1.5"/>
  <circle cx="210.21" cy="112.33" r="3" fill="#ffffff" stroke="#1f77b4" stroke-width="1.5"/>
  <circle cx="220.85" cy="109.68" r="3" fill="#ffffff" stroke="#1f77b4" stroke-width="1.5"/>
  <circle cx="231.42" cy="96.62" r="3" fill="#ffffff" stroke="#1f77b4" stroke-width="1.5"/>
  <circle cx="241.96" cy="96.34" r="3" fill="#ffffff" stroke="#1f77b4" stroke-width="1.5"/>
  <circle cx="252.66" cy="96.34" r="3" fill="#ffffff" stroke="#1f77b4" stroke-width="1.5"/>
  <circle cx="256.87" cy="96.34" r="3" fill="#ffffff" stroke="#1f77b4" stroke-width="1.5"/>
  <circle cx="267.42" cy="94.97" r="3" fill="#ffffff" stroke="#1f77b4" stroke-width="1.5"/>
  <circle cx="277.99" cy="92.61" r="3" fill="#ffffff" stroke="#1f77b4" stroke-width="1.5"/>
  <circle cx="288.87" cy="92.61" r="3" fill="#ffffff" stroke="#1f77b4" stroke-width="1.5"/>
  <circle cx="299.45" cy="80.99" r="3" fill="#ffffff" stroke="#1f77b4" stroke-width="1.5"/>
  <circle cx="301.87" cy="80.99" r="3" fill="#ffffff" stroke="#1f77b4" stroke-width="1.5"/>
  <circle cx="312.54" cy="80.84" r="3" fill="#ffffff" stroke="#1f77b4" stroke-width="1.5"/>
  <circle cx="323.20" cy="78.69" r="3" fill="#ffffff" stroke="#1f77b4" stroke-width="1.5"/>
  <circle cx="334.08" cy="78.69" r="3" fill="#ffffff" stroke="#1f77b4" stroke-width="1.5"/>
  <circle cx="344.63" cy="77.33" r="3" fill="#ffffff" stroke="#1f77b4" stroke-width="1.5"/>
  <circle cx="347.45" cy="77.33" r="3" fill="#ffffff" stroke="#1f77b4" stroke-width="1.5"/>
  <circle cx="358.05" cy="76.83" r="3" fill="#ffffff" stroke="#1f77b4" stroke-width="1.5"/>
  <circle cx="368.66" cy="76.04" r="3" fill="#ffffff" stroke="#1f77b4" stroke-width="1.5"/>
  <circle cx="379.26" cy="76.04" r="3" fill="#ffffff" stroke="#1f77b4" stroke-width="1.5"/>
  <circle cx="390.26" cy="76.04" r="3" fill="#ffffff" stroke="#1f77b4" stroke-width="1.5"/>
  <circle cx="394.59" cy="76.04" r="3" fill="#ffffff" stroke="#1f77b4" stroke-width="1.5"/>
  <circle cx="405.14" cy="77.54" r="3" fill="#ffffff" stroke="#1f77b4" stroke-width="1.5"/>
  <circle cx="415.68" cy="76.75" r="3" fill="#ffffff" stroke="#1f77b4" stroke-width="1.5"/>
  <circle cx="426.25" cy="76.75" r="3" fill="#ffffff" stroke="#1f77b4" stroke-width="1.5"/>
  <circle cx="436.79" cy="74.96" r="3" fill="#ffffff" stroke="#1f77b4" stroke-width="1.5"/>
  <circle cx="438.77" cy="74.96" r="3" fill="#ffffff" stroke="#1f77b4" stroke-width="1.5"/>
  <circle cx="449.31" cy="74.96" r="3" fill="#ffffff" stroke="#1f77b4" stroke-width="1.5"/>
  <circle cx="459.88" cy="73.96" r="3" fill="#ffffff" stroke="#1f77b4" stroke-width="1.5"/>
  <circle cx="470.44" cy="73.89" r="3" fill="#ffffff" stroke="#1f77b4" stroke-width="1.5"/>
  <circle cx="481.33" cy="73.89" r="3" fill="#ffffff" stroke="#1f77b4" stroke-width="1.5"/>
  <circle cx="485.23" cy="73.89" r="3" fill="#ffffff" stroke="#1f77b4" stroke-width="1.5"/>
  <circle cx="495.77" cy="73.81" r="3" fill="#ffffff" stroke="#1f77b4" stroke-width="1.5"/>
  <circle cx="506.29" cy="73.81" r="3" fill="#ffffff" stroke="#1f77b4" stroke-width="1.5"/>
  <circle cx="516.87" cy="73.81" r="3" fill="#ffffff" stroke="#1f77b4" stroke-width="1.5"/>
  <circle cx="527.50" cy="73.81" r="3" fill="#ffffff" stroke="#1f77b4" stroke-width="1.5"/>
  <circle cx="531.69" cy="73.81" r="3" fill="#ffffff" stroke="#1f77b4" stroke-width="1.5"/>
  <circle cx="542.22" cy="73.81" r="3" fill="#ffffff" stroke="#1f77b4" stroke-width="1.5"/>
  <circle cx="552.76" cy="73.81" r="3" fill="#ffffff" stroke="#1f77b4" stroke-width="1.5"/>
  <circle cx="563.34" cy="73.81" r="3" fill="#ffffff" stroke="#1f77b4" stroke-width="1.5"/>
  <circle cx="573.98" cy="73.81" r="3" fill="#ffffff" stroke="#1f77b4" stroke-width="1.5"/>
  <circle cx="577.68" cy="73.81" r="3" fill="#ffffff" stroke="#1f77b4" stroke-width="1.5"/>
  <circle cx="588.29" cy="73.74" r="3" fill="#ffffff" stroke="#1f77b4" stroke-width="1.5"/>
  <circle cx="598.86" cy="73.74" r="3" fill="#ffffff" stroke="#1f77b4" stroke-width="1.5"/>
  <circle cx="609.44" cy="66.21" r="3" fill="#ffffff" stroke="#1f77b4" stroke-width="1.5"/>
  <circle cx="620.01" cy="63.20" r="3" fill="#ffffff" stroke="#1f77b4" stroke-width="1.5"/>
  <circle cx="622.83" cy="63.20" r="3" fill="#ffffff" stroke="#1f77b4" stroke-width="1.5"/>
  <circle cx="633.46" cy="56.03" r="3" fill="#ffffff" stroke="#1f77b4" stroke-width="1.5"/>
  <circle cx="644.01" cy="52.30" r="3" fill="#ffffff" stroke="#1f77b4" stroke-width="1.5"/>
  <circle cx="654.76" cy="52.01" r="3" fill="#ffffff" stroke="#1f77b4" stroke-width="1.5"/>
  <circle cx="665.32" cy="52.01" r="3" fill="#ffffff" stroke="#1f77b4" stroke-width="1.5"/>
  <circle cx="668.02" cy="52.01" r="3" fill="#ffffff" stroke="#1f77b4" stroke-width="1.5"/>
  <circle cx="678.58" cy="52.01" r="3" fill="#ffffff" stroke="#1f77b4" stroke-width="1.5"/>
  <circle cx="689.14" cy="51.29" r="3" fill="#ffffff" stroke="#1f77b4" stroke-width="1.5"/>
  <circle cx="699.74" cy="51.29" r="3" fill="#ffffff" stroke="#1f77b4" stroke-width="1.5"/>
  <circle cx="710.33" cy="51.29" r="3" fill="#ffffff" stroke="#1f77b4" stroke-width="1.5"/>
  <circle cx="714.11" cy="51.29" r="3" fill="#ffffff" stroke="#1f77b4" stroke-width="1.5"/>
  <circle cx="724.71" cy="50.14" r="3" fill="#ffffff" stroke="#1f77b4" stroke-width="1.5"/>
  <circle cx="735.26" cy="50.00" r="3" fill="#ffffff" stroke="#1f77b4" stroke-width="1.5"/>
  <circle cx="745.84" cy="50.00" r="3" fill="#ffffff" stroke="#1f77b4" stroke-width="1.5"/>
  <circle cx="756.36" cy="50.00" r="3" fill="#ffffff" stroke="#1f77b4" stroke-width="1.5"/>
  <circle cx="760.00" cy="50.00" r="3" fill="#ffffff" stroke="#1f77b4" stroke-width="1.5"/>
  <text x="400" y="392" text-anchor="middle" font-family="sans-serif" font-size="11" fill="#444">Total wall-clock: 14.50 h · Final hold-out score: 40.43% · 75 recorded phase(s)</text>
</svg>
